<mxfile host="app.diagrams.net" modified="2024-03-16T04:36:48.566Z" agent="Mozilla/5.0 (Windows NT 10.0; Win64; x64) AppleWebKit/537.36 (KHTML, like Gecko) Chrome/122.0.0.0 Safari/537.36" etag="QhTE0KHXLQefgDeUFL_v" version="24.0.6" type="device" pages="3">
  <diagram name="DATA MODEL" id="8Vv8Cdxd6RyiCp-zmt-N">
    <mxGraphModel dx="1593" dy="647" grid="1" gridSize="10" guides="1" tooltips="1" connect="1" arrows="1" fold="1" page="1" pageScale="1" pageWidth="5000" pageHeight="5000" math="0" shadow="0">
      <root>
        <mxCell id="0" />
        <mxCell id="1" parent="0" />
        <mxCell id="gJs5bKo470rQABARNcll-5" value="id                  int             PK" style="swimlane;fontStyle=0;childLayout=stackLayout;horizontal=1;startSize=26;horizontalStack=0;resizeParent=1;resizeParentMax=0;resizeLast=0;collapsible=1;marginBottom=0;align=center;fontSize=14;shadow=1;" vertex="1" parent="1">
          <mxGeometry x="170" y="210" width="230" height="180" as="geometry" />
        </mxCell>
        <mxCell id="gJs5bKo470rQABARNcll-6" value="nombre&amp;nbsp; &amp;nbsp; &amp;nbsp; &amp;nbsp; &amp;nbsp; &amp;nbsp; &amp;nbsp; &amp;nbsp; &amp;nbsp; &amp;nbsp;&lt;font color=&quot;#ff9429&quot;&gt;char(50)&lt;/font&gt;" style="text;strokeColor=none;fillColor=none;spacingLeft=4;spacingRight=4;overflow=hidden;rotatable=0;points=[[0,0.5],[1,0.5]];portConstraint=eastwest;fontSize=12;whiteSpace=wrap;html=1;" vertex="1" parent="gJs5bKo470rQABARNcll-5">
          <mxGeometry y="26" width="230" height="30" as="geometry" />
        </mxCell>
        <mxCell id="gJs5bKo470rQABARNcll-7" value="edad&amp;nbsp; &amp;nbsp; &amp;nbsp; &amp;nbsp; &amp;nbsp; &amp;nbsp; &amp;nbsp; &amp;nbsp; &amp;nbsp; &amp;nbsp; &amp;nbsp; &amp;nbsp;&lt;font color=&quot;#00cc00&quot;&gt;int&lt;/font&gt;&amp;nbsp;&amp;nbsp;" style="text;strokeColor=none;fillColor=none;spacingLeft=4;spacingRight=4;overflow=hidden;rotatable=0;points=[[0,0.5],[1,0.5]];portConstraint=eastwest;fontSize=12;whiteSpace=wrap;html=1;" vertex="1" parent="gJs5bKo470rQABARNcll-5">
          <mxGeometry y="56" width="230" height="30" as="geometry" />
        </mxCell>
        <mxCell id="gJs5bKo470rQABARNcll-8" value="correo&amp;nbsp; &amp;nbsp; &amp;nbsp; &amp;nbsp; &amp;nbsp; &amp;nbsp; &amp;nbsp; &amp;nbsp; &amp;nbsp; &amp;nbsp; &amp;nbsp;&lt;font color=&quot;#ff9429&quot;&gt;varchar(50)&lt;/font&gt;&lt;div&gt;&lt;br&gt;&lt;/div&gt;&lt;div&gt;rol&amp;nbsp; &amp;nbsp; &amp;nbsp; &amp;nbsp; &amp;nbsp; &amp;nbsp; &amp;nbsp; &amp;nbsp; &amp;nbsp; &amp;nbsp; &amp;nbsp; &amp;nbsp; &amp;nbsp; &amp;nbsp;&lt;font color=&quot;#ff9429&quot;&gt;char(50)&lt;/font&gt;&lt;/div&gt;&lt;div&gt;&lt;br&gt;&lt;/div&gt;&lt;div&gt;responsabilidad&amp;nbsp; &amp;nbsp; &amp;nbsp; &lt;font color=&quot;#ff9429&quot;&gt;char(50)&lt;/font&gt;&lt;/div&gt;" style="text;strokeColor=none;fillColor=none;spacingLeft=4;spacingRight=4;overflow=hidden;rotatable=0;points=[[0,0.5],[1,0.5]];portConstraint=eastwest;fontSize=12;whiteSpace=wrap;html=1;" vertex="1" parent="gJs5bKo470rQABARNcll-5">
          <mxGeometry y="86" width="230" height="94" as="geometry" />
        </mxCell>
        <mxCell id="gJs5bKo470rQABARNcll-11" value="" style="edgeStyle=entityRelationEdgeStyle;fontSize=12;html=1;endArrow=ERzeroToMany;startArrow=ERmandOne;rounded=0;exitX=1;exitY=0.5;exitDx=0;exitDy=0;" edge="1" parent="1" source="gJs5bKo470rQABARNcll-7">
          <mxGeometry width="100" height="100" relative="1" as="geometry">
            <mxPoint x="450" y="480" as="sourcePoint" />
            <mxPoint x="550" y="380" as="targetPoint" />
            <Array as="points">
              <mxPoint x="450" y="320" />
            </Array>
          </mxGeometry>
        </mxCell>
        <mxCell id="gJs5bKo470rQABARNcll-13" value="id                           int                          PK" style="swimlane;fontStyle=0;childLayout=stackLayout;horizontal=1;startSize=26;horizontalStack=0;resizeParent=1;resizeParentMax=0;resizeLast=0;collapsible=1;marginBottom=0;align=center;fontSize=14;shadow=1;" vertex="1" parent="1">
          <mxGeometry x="550" y="320" width="310" height="210" as="geometry">
            <mxRectangle x="550" y="320" width="220" height="30" as="alternateBounds" />
          </mxGeometry>
        </mxCell>
        <mxCell id="gJs5bKo470rQABARNcll-14" value="empleado_id&amp;nbsp; &amp;nbsp; &amp;nbsp; &amp;nbsp; &amp;nbsp; &amp;nbsp; &amp;nbsp; &amp;nbsp; &amp;nbsp;&lt;font color=&quot;#ff9429&quot;&gt;char(50)&amp;nbsp; &amp;nbsp; &amp;nbsp; &amp;nbsp; &amp;nbsp; &amp;nbsp; &amp;nbsp; &amp;nbsp; &amp;nbsp; &amp;nbsp; &amp;nbsp; &amp;nbsp; &amp;nbsp;&amp;nbsp;&lt;/font&gt;&lt;font color=&quot;#007fff&quot;&gt;FK&lt;/font&gt;" style="text;strokeColor=none;fillColor=none;spacingLeft=4;spacingRight=4;overflow=hidden;rotatable=0;points=[[0,0.5],[1,0.5]];portConstraint=eastwest;fontSize=12;whiteSpace=wrap;html=1;" vertex="1" parent="gJs5bKo470rQABARNcll-13">
          <mxGeometry y="26" width="310" height="30" as="geometry" />
        </mxCell>
        <mxCell id="gJs5bKo470rQABARNcll-15" value="habilidad&amp;nbsp; &amp;nbsp; &amp;nbsp; &amp;nbsp; &amp;nbsp; &amp;nbsp; &amp;nbsp; &amp;nbsp; &amp;nbsp; &amp;nbsp; &amp;nbsp; &amp;nbsp;&lt;span style=&quot;color: rgb(255, 148, 41);&quot;&gt;char(50)&lt;/span&gt;" style="text;strokeColor=none;fillColor=none;spacingLeft=4;spacingRight=4;overflow=hidden;rotatable=0;points=[[0,0.5],[1,0.5]];portConstraint=eastwest;fontSize=12;whiteSpace=wrap;html=1;" vertex="1" parent="gJs5bKo470rQABARNcll-13">
          <mxGeometry y="56" width="310" height="30" as="geometry" />
        </mxCell>
        <mxCell id="gJs5bKo470rQABARNcll-16" value="años_experiencia&amp;nbsp; &amp;nbsp; &amp;nbsp; &amp;nbsp; &amp;nbsp;&amp;nbsp;&lt;font color=&quot;#00cc00&quot;&gt;int&lt;/font&gt;&lt;div&gt;&lt;font color=&quot;#ff9429&quot;&gt;&lt;br&gt;&lt;/font&gt;&lt;div&gt;certificacion&amp;nbsp; &amp;nbsp; &amp;nbsp; &amp;nbsp; &amp;nbsp; &amp;nbsp; &amp;nbsp; &amp;nbsp; &amp;nbsp; &amp;nbsp;&lt;font color=&quot;#ff9429&quot;&gt;char(50)&lt;/font&gt;&lt;/div&gt;&lt;div&gt;&lt;br&gt;&lt;/div&gt;&lt;div&gt;tiempo_en_empresa&amp;nbsp; &amp;nbsp; &amp;nbsp;&lt;font color=&quot;#ff9429&quot;&gt;char(50)&lt;/font&gt;&lt;/div&gt;&lt;/div&gt;&lt;div&gt;&lt;font color=&quot;#ff9429&quot;&gt;&lt;br&gt;&lt;/font&gt;&lt;/div&gt;&lt;div&gt;salario&amp;nbsp; &amp;nbsp; &amp;nbsp; &amp;nbsp; &amp;nbsp; &amp;nbsp; &amp;nbsp; &amp;nbsp; &amp;nbsp; &amp;nbsp; &amp;nbsp; &amp;nbsp; &amp;nbsp; &lt;font color=&quot;#00cc00&quot;&gt;&amp;nbsp;int&lt;/font&gt;&lt;/div&gt;" style="text;strokeColor=none;fillColor=none;spacingLeft=4;spacingRight=4;overflow=hidden;rotatable=0;points=[[0,0.5],[1,0.5]];portConstraint=eastwest;fontSize=12;whiteSpace=wrap;html=1;" vertex="1" parent="gJs5bKo470rQABARNcll-13">
          <mxGeometry y="86" width="310" height="124" as="geometry" />
        </mxCell>
        <mxCell id="gJs5bKo470rQABARNcll-18" value="&lt;b&gt;&lt;font style=&quot;font-size: 48px;&quot;&gt;DATA MODEL DIAGRAM&lt;/font&gt;&lt;/b&gt;&lt;div&gt;&lt;b&gt;&lt;font style=&quot;font-size: 48px;&quot;&gt;(Modelo relacional)&lt;/font&gt;&lt;/b&gt;&lt;/div&gt;" style="text;html=1;align=center;verticalAlign=middle;resizable=0;points=[];autosize=1;strokeColor=none;fillColor=none;" vertex="1" parent="1">
          <mxGeometry x="270" y="20" width="580" height="130" as="geometry" />
        </mxCell>
        <mxCell id="Pp-eJs3AvqV8gKSmDJ2w-1" value="&lt;b&gt;&lt;font style=&quot;font-size: 18px;&quot;&gt;empleado&lt;/font&gt;&lt;/b&gt;" style="text;html=1;align=center;verticalAlign=middle;resizable=0;points=[];autosize=1;strokeColor=none;fillColor=none;" vertex="1" parent="1">
          <mxGeometry x="160" y="170" width="110" height="40" as="geometry" />
        </mxCell>
        <mxCell id="Pp-eJs3AvqV8gKSmDJ2w-2" value="&lt;b&gt;&lt;font style=&quot;font-size: 18px;&quot;&gt;perfil_empleado&lt;/font&gt;&lt;/b&gt;" style="text;html=1;align=center;verticalAlign=middle;resizable=0;points=[];autosize=1;strokeColor=none;fillColor=none;" vertex="1" parent="1">
          <mxGeometry x="540" y="280" width="160" height="40" as="geometry" />
        </mxCell>
      </root>
    </mxGraphModel>
  </diagram>
  <diagram id="5F2YvM18f5DHf8GJzFru" name="COMPONENT DIAGRAM">
    <mxGraphModel dx="1083" dy="440" grid="1" gridSize="10" guides="1" tooltips="1" connect="1" arrows="1" fold="1" page="1" pageScale="1" pageWidth="5000" pageHeight="5000" math="0" shadow="0">
      <root>
        <mxCell id="0" />
        <mxCell id="1" parent="0" />
        <mxCell id="p4Lxp6jSWEpP2U2FWhaJ-3" value="database.py" style="shape=module;align=left;spacingLeft=20;align=center;verticalAlign=top;whiteSpace=wrap;html=1;" vertex="1" parent="1">
          <mxGeometry x="210" y="1040" width="150" height="70" as="geometry" />
        </mxCell>
        <mxCell id="p4Lxp6jSWEpP2U2FWhaJ-4" value="main.py" style="shape=module;align=left;spacingLeft=20;align=center;verticalAlign=top;whiteSpace=wrap;html=1;" vertex="1" parent="1">
          <mxGeometry x="210" y="900" width="150" height="70" as="geometry" />
        </mxCell>
        <mxCell id="p4Lxp6jSWEpP2U2FWhaJ-5" value="models.py" style="shape=module;align=left;spacingLeft=20;align=center;verticalAlign=top;whiteSpace=wrap;html=1;" vertex="1" parent="1">
          <mxGeometry x="470" y="900" width="150" height="70" as="geometry" />
        </mxCell>
        <mxCell id="p4Lxp6jSWEpP2U2FWhaJ-7" value="Información empleado&lt;div&gt;&lt;span style=&quot;background-color: initial;&quot;&gt;Información perfil&lt;/span&gt;&lt;/div&gt;" style="whiteSpace=wrap;html=1;align=center;" vertex="1" parent="1">
          <mxGeometry x="480" y="1040" width="140" height="70" as="geometry" />
        </mxCell>
        <mxCell id="p4Lxp6jSWEpP2U2FWhaJ-8" value="DB" style="whiteSpace=wrap;html=1;align=center;" vertex="1" parent="1">
          <mxGeometry x="480" y="1020" width="50" height="20" as="geometry" />
        </mxCell>
        <mxCell id="p4Lxp6jSWEpP2U2FWhaJ-19" value="&lt;font style=&quot;font-size: 48px;&quot;&gt;&lt;b&gt;COMPONENT DIAGRAM&lt;/b&gt;&lt;/font&gt;" style="text;html=1;align=center;verticalAlign=middle;resizable=0;points=[];autosize=1;strokeColor=none;fillColor=none;" vertex="1" parent="1">
          <mxGeometry x="120" y="780" width="580" height="70" as="geometry" />
        </mxCell>
        <mxCell id="8f7R22QJFNezxQCNV4N7-9" value="" style="html=1;verticalAlign=bottom;endArrow=open;dashed=1;endSize=8;curved=0;rounded=0;entryX=0.552;entryY=0.969;entryDx=0;entryDy=0;entryPerimeter=0;" edge="1" parent="1" target="p4Lxp6jSWEpP2U2FWhaJ-4">
          <mxGeometry relative="1" as="geometry">
            <mxPoint x="293" y="1040" as="sourcePoint" />
            <mxPoint x="350" y="980" as="targetPoint" />
          </mxGeometry>
        </mxCell>
        <mxCell id="8f7R22QJFNezxQCNV4N7-10" value="" style="html=1;verticalAlign=bottom;endArrow=open;dashed=1;endSize=8;curved=0;rounded=0;entryX=0.549;entryY=-0.004;entryDx=0;entryDy=0;entryPerimeter=0;" edge="1" parent="1" target="p4Lxp6jSWEpP2U2FWhaJ-3">
          <mxGeometry relative="1" as="geometry">
            <mxPoint x="292" y="1040" as="sourcePoint" />
            <mxPoint x="304" y="979" as="targetPoint" />
            <Array as="points">
              <mxPoint x="292" y="1030" />
            </Array>
          </mxGeometry>
        </mxCell>
        <mxCell id="MOI77YkNoGCoBy-1bqQC-1" value="" style="html=1;verticalAlign=bottom;endArrow=open;dashed=1;endSize=8;rounded=0;entryX=0.8;entryY=0;entryDx=0;entryDy=0;entryPerimeter=0;exitX=0.5;exitY=1;exitDx=0;exitDy=0;edgeStyle=elbowEdgeStyle;elbow=vertical;" edge="1" parent="1" source="p4Lxp6jSWEpP2U2FWhaJ-5" target="p4Lxp6jSWEpP2U2FWhaJ-3">
          <mxGeometry relative="1" as="geometry">
            <mxPoint x="420" y="982" as="sourcePoint" />
            <mxPoint x="420" y="910" as="targetPoint" />
          </mxGeometry>
        </mxCell>
        <mxCell id="MOI77YkNoGCoBy-1bqQC-2" value="" style="html=1;verticalAlign=bottom;endArrow=open;dashed=1;endSize=8;curved=0;rounded=0;entryX=0;entryY=0.5;entryDx=0;entryDy=0;" edge="1" parent="1" target="p4Lxp6jSWEpP2U2FWhaJ-7">
          <mxGeometry relative="1" as="geometry">
            <mxPoint x="420" y="1075" as="sourcePoint" />
            <mxPoint x="480" y="1070" as="targetPoint" />
          </mxGeometry>
        </mxCell>
        <mxCell id="MOI77YkNoGCoBy-1bqQC-3" value="" style="html=1;verticalAlign=bottom;endArrow=open;dashed=1;endSize=8;curved=0;rounded=0;entryX=1;entryY=0.5;entryDx=0;entryDy=0;" edge="1" parent="1" target="p4Lxp6jSWEpP2U2FWhaJ-3">
          <mxGeometry relative="1" as="geometry">
            <mxPoint x="420" y="1075" as="sourcePoint" />
            <mxPoint x="409.28" y="1092" as="targetPoint" />
            <Array as="points">
              <mxPoint x="410" y="1075" />
            </Array>
          </mxGeometry>
        </mxCell>
      </root>
    </mxGraphModel>
  </diagram>
  <diagram id="gFK22XdslvCX1JbC0nna" name="PACKAGE DIAGRAM">
    <mxGraphModel dx="2083" dy="846" grid="1" gridSize="10" guides="1" tooltips="1" connect="1" arrows="1" fold="1" page="1" pageScale="1" pageWidth="5000" pageHeight="5000" math="0" shadow="0">
      <root>
        <mxCell id="0" />
        <mxCell id="1" parent="0" />
        <mxCell id="j75Wx8pc6O_PyOCu6fBs-1" value="API&lt;div&gt;Gestor de recursos humanos&lt;/div&gt;" style="shape=folder;fontStyle=1;spacingTop=10;tabWidth=40;tabHeight=14;tabPosition=left;html=1;whiteSpace=wrap;" vertex="1" parent="1">
          <mxGeometry x="340" y="450" width="600" height="230" as="geometry" />
        </mxCell>
        <mxCell id="j75Wx8pc6O_PyOCu6fBs-2" value="models" style="shape=folder;fontStyle=1;spacingTop=10;tabWidth=40;tabHeight=14;tabPosition=left;html=1;whiteSpace=wrap;" vertex="1" parent="1">
          <mxGeometry x="650" y="600" width="90" height="60" as="geometry" />
        </mxCell>
        <mxCell id="j75Wx8pc6O_PyOCu6fBs-3" value="CR&lt;div&gt;perfil empleado&lt;/div&gt;" style="shape=folder;fontStyle=1;spacingTop=10;tabWidth=40;tabHeight=14;tabPosition=left;html=1;whiteSpace=wrap;" vertex="1" parent="1">
          <mxGeometry x="500" y="600" width="100" height="60" as="geometry" />
        </mxCell>
        <mxCell id="j75Wx8pc6O_PyOCu6fBs-5" value="CRUD&amp;nbsp;&lt;div&gt;empleado&lt;/div&gt;" style="shape=folder;fontStyle=1;spacingTop=10;tabWidth=40;tabHeight=14;tabPosition=left;html=1;whiteSpace=wrap;" vertex="1" parent="1">
          <mxGeometry x="370" y="600" width="100" height="60" as="geometry" />
        </mxCell>
        <mxCell id="j75Wx8pc6O_PyOCu6fBs-11" value="Data Management" style="shape=folder;fontStyle=1;spacingTop=10;tabWidth=40;tabHeight=14;tabPosition=left;html=1;whiteSpace=wrap;" vertex="1" parent="1">
          <mxGeometry x="370" y="770" width="580" height="180" as="geometry" />
        </mxCell>
        <mxCell id="j75Wx8pc6O_PyOCu6fBs-12" value="empleado" style="shape=folder;fontStyle=1;spacingTop=10;tabWidth=40;tabHeight=14;tabPosition=left;html=1;whiteSpace=wrap;" vertex="1" parent="1">
          <mxGeometry x="400" y="880" width="70" height="50" as="geometry" />
        </mxCell>
        <mxCell id="j75Wx8pc6O_PyOCu6fBs-13" value="perfil_empleado" style="shape=folder;fontStyle=1;spacingTop=10;tabWidth=40;tabHeight=14;tabPosition=left;html=1;whiteSpace=wrap;" vertex="1" parent="1">
          <mxGeometry x="770" y="880" width="110" height="50" as="geometry" />
        </mxCell>
        <mxCell id="j75Wx8pc6O_PyOCu6fBs-14" value="" style="endArrow=open;endSize=12;dashed=1;html=1;rounded=0;entryX=0.687;entryY=1.041;entryDx=0;entryDy=0;entryPerimeter=0;" edge="1" parent="1" target="j75Wx8pc6O_PyOCu6fBs-5">
          <mxGeometry width="160" relative="1" as="geometry">
            <mxPoint x="440" y="780" as="sourcePoint" />
            <mxPoint x="550" y="760" as="targetPoint" />
          </mxGeometry>
        </mxCell>
        <mxCell id="j75Wx8pc6O_PyOCu6fBs-15" value="" style="endArrow=open;endSize=12;dashed=1;html=1;rounded=0;entryX=0.159;entryY=0.072;entryDx=0;entryDy=0;entryPerimeter=0;" edge="1" parent="1" target="j75Wx8pc6O_PyOCu6fBs-11">
          <mxGeometry width="160" relative="1" as="geometry">
            <mxPoint x="460" y="660" as="sourcePoint" />
            <mxPoint x="449" y="672" as="targetPoint" />
          </mxGeometry>
        </mxCell>
        <mxCell id="j75Wx8pc6O_PyOCu6fBs-18" value="" style="endArrow=open;endSize=12;dashed=1;html=1;rounded=0;entryX=0.687;entryY=1.041;entryDx=0;entryDy=0;entryPerimeter=0;" edge="1" parent="1">
          <mxGeometry width="160" relative="1" as="geometry">
            <mxPoint x="540.1" y="780" as="sourcePoint" />
            <mxPoint x="539.1" y="662" as="targetPoint" />
          </mxGeometry>
        </mxCell>
        <mxCell id="j75Wx8pc6O_PyOCu6fBs-19" value="" style="endArrow=open;endSize=12;dashed=1;html=1;rounded=0;entryX=0.224;entryY=0.062;entryDx=0;entryDy=0;entryPerimeter=0;" edge="1" parent="1">
          <mxGeometry width="160" relative="1" as="geometry">
            <mxPoint x="560.1" y="660" as="sourcePoint" />
            <mxPoint x="560.1" y="781" as="targetPoint" />
          </mxGeometry>
        </mxCell>
        <mxCell id="j75Wx8pc6O_PyOCu6fBs-20" value="" style="endArrow=open;endSize=12;dashed=1;html=1;rounded=0;entryX=0.687;entryY=1.041;entryDx=0;entryDy=0;entryPerimeter=0;" edge="1" parent="1">
          <mxGeometry width="160" relative="1" as="geometry">
            <mxPoint x="685.1" y="780" as="sourcePoint" />
            <mxPoint x="684.1" y="662" as="targetPoint" />
          </mxGeometry>
        </mxCell>
        <mxCell id="j75Wx8pc6O_PyOCu6fBs-21" value="" style="endArrow=open;endSize=12;dashed=1;html=1;rounded=0;entryX=0.224;entryY=0.062;entryDx=0;entryDy=0;entryPerimeter=0;" edge="1" parent="1">
          <mxGeometry width="160" relative="1" as="geometry">
            <mxPoint x="705.1" y="660" as="sourcePoint" />
            <mxPoint x="705.1" y="781" as="targetPoint" />
          </mxGeometry>
        </mxCell>
        <mxCell id="j75Wx8pc6O_PyOCu6fBs-22" value="Services" style="shape=folder;fontStyle=1;spacingTop=10;tabWidth=40;tabHeight=14;tabPosition=left;html=1;whiteSpace=wrap;" vertex="1" parent="1">
          <mxGeometry x="790" y="605" width="100" height="55" as="geometry" />
        </mxCell>
        <mxCell id="j75Wx8pc6O_PyOCu6fBs-23" value="" style="endArrow=open;endSize=12;dashed=1;html=1;rounded=0;entryX=0.687;entryY=1.041;entryDx=0;entryDy=0;entryPerimeter=0;" edge="1" parent="1">
          <mxGeometry width="160" relative="1" as="geometry">
            <mxPoint x="821" y="780" as="sourcePoint" />
            <mxPoint x="820" y="662" as="targetPoint" />
          </mxGeometry>
        </mxCell>
        <mxCell id="j75Wx8pc6O_PyOCu6fBs-24" value="" style="endArrow=open;endSize=12;dashed=1;html=1;rounded=0;entryX=0.224;entryY=0.062;entryDx=0;entryDy=0;entryPerimeter=0;" edge="1" parent="1">
          <mxGeometry width="160" relative="1" as="geometry">
            <mxPoint x="841" y="660" as="sourcePoint" />
            <mxPoint x="841" y="781" as="targetPoint" />
          </mxGeometry>
        </mxCell>
        <mxCell id="j75Wx8pc6O_PyOCu6fBs-25" value="&lt;font style=&quot;font-size: 48px;&quot;&gt;&lt;b&gt;PACKAGE DIAGRAM&lt;/b&gt;&lt;/font&gt;" style="text;html=1;align=center;verticalAlign=middle;resizable=0;points=[];autosize=1;strokeColor=none;fillColor=none;" vertex="1" parent="1">
          <mxGeometry x="390" y="330" width="500" height="70" as="geometry" />
        </mxCell>
      </root>
    </mxGraphModel>
  </diagram>
</mxfile>
